<?xml version="1.0" encoding="utf-8" ?><svg xmlns="http://www.w3.org/2000/svg" xmlns:xlink="http://www.w3.org/1999/xlink" width="256" height="256" viewBox="0 0 256 256"><path fill="#F95F08" d="M87.3351 40.9698C88.9043 40.7198 91.9769 41.8621 93.428 42.6352C102.172 47.2931 108.933 54.5239 115.063 62.1397C120.052 60.6401 136.124 60.8561 141.073 62.2264C146.368 54.4182 155.512 46.4865 163.872 42.1746C165.968 41.0934 170.174 40.2693 170.925 43.3581C173.557 54.1812 172.671 70.3615 168.534 80.6876C172.092 86.8577 178.209 95.1986 178.83 102.542C178.944 103.891 169.464 107.842 168.03 108.55C164.329 110.375 160.98 112.485 157.493 114.718C159.15 117.109 160.738 119.694 161.939 122.346C165.321 129.866 165.56 138.425 162.601 146.122C159.177 155.095 152.54 161.76 143.816 165.664C131.071 171.944 117.657 167.232 106.548 159.973C101.315 156.554 96.3491 152.247 89.9933 151.159C81.8082 149.759 77.6126 156.647 74.2174 155.949C73.4043 155.782 72.9925 155.298 72.5461 154.66C71.6139 150.906 73.8673 142.944 75.688 139.404C78.8204 133.28 84.2501 128.647 90.7896 126.516C98.8748 123.953 107.761 125.67 115.159 129.48C107.501 119.432 92.5462 109.374 80.8305 105.118C79.5615 104.657 77.745 103.81 77.2066 102.523C76.7897 97.6975 84.8865 84.7114 87.5154 80.5892C83.8895 71.7391 82.2315 52.6686 85.3834 42.924C85.6128 42.215 86.7151 41.4096 87.3351 40.9698ZM79.5769 146.297C103.19 137.886 112.146 166.406 134.947 161.784C142.531 160.72 146.708 157.034 152.142 152.069C151.207 152.309 150.242 152.565 149.302 152.77C127.713 157.467 118.23 128.48 96.1552 131.569C87.0035 132.824 82.3006 137.883 79.5769 146.297ZM172.198 99.6719C167.318 92.9327 156.239 87.9805 148.065 90.5666C134.985 94.7048 135.434 110.437 133.334 121.518C135.273 122.995 135.994 123.274 136.033 125.901C137.837 124.323 141.776 119.681 144.156 117.428C153.308 108.766 161.145 105.142 172.198 99.6719ZM107.438 113.102L107.813 113.386C112.998 117.891 115.381 120.77 119.955 125.354C120.208 123.098 121.134 122.748 122.852 121.529C120.874 112.006 121.612 99.9589 113.066 93.1471C104.076 85.9813 90.2642 91.6145 83.945 99.75C91.261 102.517 101.278 108.331 107.438 113.102ZM163.887 50.4736C156.944 55.2083 153.877 58.1936 148.515 64.7242C150.911 65.9452 152.809 66.9333 155.115 68.3528C157.812 70.1852 160.034 71.9011 162.411 74.1441C163.912 69.114 165.994 55.0907 164.289 50.6292L163.887 50.4736ZM134.664 143.881C138.678 146.175 143.051 147.884 147.767 146.631C150.934 145.806 153.626 143.723 155.22 140.865C158.924 134.344 157.854 126.498 153.694 120.496C153.246 119.849 152.727 118.867 152.113 118.397C149.86 120.428 147.002 122.975 144.964 125.202C139.963 130.666 135.555 137 127.184 136.587C126.748 136.565 126.311 136.536 125.875 136.501C128.578 139.108 131.46 141.919 134.664 143.881ZM101.12 68.1967C103.334 66.8697 105.586 65.605 107.871 64.4043C103.732 60.31 97.2806 52.7657 91.9082 50.2227C90.4269 56.0624 91.8953 68.2906 93.6281 74.0323C95.9245 72.1107 98.6124 69.7842 101.12 68.1967Z"/><path fill="#04597D" d="M148.082 96.5261C149.548 96.293 151.606 97.453 151.966 98.9719C151.442 101.32 147.229 101.885 144.703 104.019C143.956 104.561 143.377 104.646 142.544 104.55C140.627 102.842 142.228 100.404 143.634 98.9211C144.904 97.5823 146.403 97.1526 148.082 96.5261Z"/><path fill="#04597D" d="M107.118 96.55C110.156 95.9389 116.034 101.039 113.977 104.213C113.03 104.822 113.42 104.671 112.313 104.737C111.52 104.187 110.573 103.441 109.773 102.995C107.885 101.941 105.339 101.582 104.267 99.5818C104.105 97.5798 105.541 97.2032 107.118 96.55Z"/><path fill="#04597D" d="M122.852 121.529C125.452 121.007 130.501 121.382 133.334 121.518C135.273 122.995 135.994 123.274 136.033 125.901C129.95 134.011 125.66 133.13 119.955 125.354C120.208 123.098 121.134 122.748 122.852 121.529Z"/><path fill="#04597D" d="M80.8724 180.566C85.6085 179.792 90.3953 181.622 93.4073 185.358C96.4193 189.094 97.1921 194.16 95.431 198.624C93.6699 203.089 89.6464 206.263 84.8949 206.936C77.6559 207.962 70.9403 202.969 69.8378 195.741C68.7353 188.513 73.6568 181.745 80.8724 180.566ZM83.6192 201.451C87.8169 201.123 90.9706 197.48 90.6952 193.279C90.4199 189.077 86.8179 185.878 82.6132 186.1C79.8457 186.247 77.3709 187.87 76.1346 190.351C74.8984 192.831 75.0919 195.785 76.6413 198.082C78.1906 200.38 80.8562 201.667 83.6192 201.451Z"/><path fill="#04597D" d="M178.892 180.535C186.2 179.516 192.94 184.641 193.911 191.955C194.883 199.269 189.715 205.976 182.395 206.901C175.141 207.817 168.508 202.706 167.545 195.458C166.582 188.21 171.651 181.544 178.892 180.535ZM181.813 201.512C182.94 201.491 183.567 201.164 184.535 200.649C190.27 197.596 189.098 187.485 182.535 186.196C181.927 186.076 181.346 185.881 180.728 185.785C177.964 186.396 176.15 186.829 174.514 189.368C173.319 191.223 173.031 193.827 173.61 195.909C174.799 200.186 177.776 201.512 181.813 201.512Z"/><path fill="#04597D" d="M66.5446 192.305C66.5557 194.235 66.6895 196.915 66.1685 198.708C63.0928 209.298 48.6909 209.532 43.4001 200.545C41.5683 197.409 41.0848 193.665 42.06 190.166C44.3499 181.628 52.3716 179.098 60.1454 181.388L62.7203 182.926C64.2881 184.333 64.3041 184.197 65.6845 185.906C64.3874 187.334 62.7907 188.553 61.2846 189.768C59.2866 187.409 56.9861 185.522 53.6648 186.045C51.7382 186.35 50.0228 187.436 48.924 189.048C44.9081 194.822 49.4897 202.852 56.7781 201.424C58.9992 200.988 60.1692 199.12 61.2872 197.344C55.808 196.923 53.9696 199.245 54.3532 192.382C56.7527 192.185 64.495 191.976 66.5446 192.305Z"/><path fill="#04597D" d="M210.49 181.111C212.183 180.868 214.704 180.457 216.248 181.101C216.517 181.494 216.812 181.829 216.545 182.388C215.143 185.323 210.276 190.163 209.583 193.178C209.107 195.25 217.144 204.297 216.917 206.092C216.341 206.645 216.404 206.468 215.377 206.503C213.888 206.507 212.341 206.56 210.847 206.592C209.185 204.218 206.872 200.521 205.508 198.012C204.349 200.18 201.697 204.373 200.282 206.421C198.42 206.576 195.447 206.508 193.503 206.525C195.611 202.359 199.504 197.699 201.834 193.349C200.255 191.162 194.779 183.491 194.034 181.419L194.251 181.032L195.186 180.858C202.644 180.646 201.891 182.934 205.513 188.886C206.733 186.778 208.956 182.729 210.49 181.111Z"/><path fill="#04597D" d="M150.823 180.874C154.384 180.854 162.187 180.632 165.266 181.172C165.292 181.96 165.312 182.748 165.328 183.536C165.347 184.703 165.472 185.247 164.739 186.004C162.597 186.811 156.469 186.479 154.015 186.258C154.226 187.867 154.183 189.427 154.438 191.238C155.224 191.465 162.201 191.267 163.51 191.245C163.525 193.194 163.498 194.917 163.782 196.847C162.04 197.169 156.205 197.032 154.401 196.755L154.127 206.591C152.012 206.535 150.454 206.547 148.344 206.671C148.186 203.693 148.009 182.781 148.525 181.45C149.112 180.908 150.004 180.944 150.823 180.874Z"/><path fill="#04597D" d="M119.524 181.027C123.487 180.664 131.862 180.896 136.132 180.883C136.272 182.645 136.159 184.473 136.093 186.243C133.222 186.462 127.852 186.564 125.014 186.218C125.258 188.138 125.225 189.534 125.203 191.479C128.059 191.222 131.683 191.286 134.612 191.261C134.746 192.782 134.801 194.543 134.886 196.087C134.887 196.313 134.732 196.495 134.604 196.725C133.32 197.375 127.09 196.995 125.519 196.733C125.15 199.297 125.182 203.735 125.151 206.472L119.42 206.598C119.597 200.561 119.296 194.424 119.356 188.378C119.373 186.726 119.227 182.499 119.524 181.027Z"/><path fill="#04597D" d="M104.576 180.611C104.835 180.606 104.97 180.739 105.235 180.883C105.867 182.288 105.827 198.93 105.578 201.217C108.825 201.06 112.331 201.061 115.602 201.009C115.703 202.799 115.708 204.702 115.804 206.541L112.062 206.507L99.7336 206.528L99.7254 192.636C99.7038 190.405 99.286 182.406 100.297 181.108C101.421 180.672 103.315 180.676 104.576 180.611Z"/></svg>
